<?xml version="1.0" encoding="UTF-8"?>
<svg width="700" height="500" xmlns="http://www.w3.org/2000/svg" xmlns:xlink="http://www.w3.org/1999/xlink">
 <rect width="700" height="500" fill="#e41e20"/>
 <path id="half" d="m300.09 97.204c-4.8618-0.082-12.931 1.55-12.75 5.2812-13.542-2.3209-14.952 3.2727-14.156 8.25 1.2884-1.9753 2.8572-3.0478 4.0625-3.25 1.8058-0.2997 3.6954 0.2835 5.625 1.4687 1.9297 1.1853 4.0556 3.098 5 4.2812-4.7794 1.1426-8.4717 0.405-12.219-0.2502-1.8472-0.3231-4.432-1.3622-5.9687-2.4375-1.5367-1.0754-2.0205-2.0876-4.4375-4.5625-2.8497-2.918-5.8826-2.0964-4.9375 2.4375 2.1856 4.2109 5.8366 6.0886 10.438 6.8438 2.214 0.3636 5.512 1.1526 9.25 1.1562 3.7381 4e-3 7.9352-0.54 10.219-0.0625-1.3719 0.8613-2.9243 2.3462-6 2.9375-3.1278 0.6012-7.883-1.8599-10.781-2.5312 0.3681 2.4386 3.444 4.7182 9.5 5.9062 9.9515 2.1669 18.221 3.8138 23.688 6.7812 5.4667 2.9675 8.9134 6.6827 11.375 9.5938 4.8986 5.7931 5.1563 10.24 5.4688 11.219 1.0078 9.2557-2.2196 14.462-8.2187 16.062-2.9996 0.8001-8.3279-0.7065-10.281-3-1.9534-2.2929-3.8541-6.2342-3.3125-12.406 0.5265-2.4213 3.2953-8.7281 0.93753-10.031-10.862-6.0033-24.051-12.074-33.594-15.687-2.6082-0.98745-4.7568 2.5574-5.5938 3.9375-16.211-1.9742-30.827-12.944-37.406-24.625-4.481-7.9556-11.866 0.0164-10.625 7.5312 2.0043 8.3876 8.395 14.452 16.062 18.75 7.8695 4.3331 17.706 8.597 27.656 8.375 5.3607 1.0141 5.3078 7.9494-1.125 9.25-12.581 0.0796-22.618-0.234-32.094-9.375-7.1878-6.5628-11.234 1.2569-9.1562 5.6875 3.5213 13.658 23.006 17.483 42.719 13.062 7.6334-1.2641 3.0625 6.9154 0.90621 7-8.2366 5.9056-22.983 11.684-35.969-0.0625-5.9424-4.5502-9.9602-0.7254-7.75 5.8438 5.7622 17.127 27.804 13.53 42.938 5.0937 3.8953-2.1714 7.4305 2.8804 2.6875 6.7188-18.82 13.15-28.23 13.3-36.719 8.25-10.628-4.1913-11.562 7.5964-5.25 11.469 7.016 4.304 24.87 1.077 37.969-7.1563 5.6154-4.1748 5.8694 2.353 2.3125 4.9375-15.544 13.433-21.671 16.971-37.875 14.781-8.0351-0.6264-7.9144 9.2799-1.5937 13.156 8.6298 5.2924 25.483-3.4924 38.562-14.344 5.5052-2.9416 6.4094 1.8827 3.6875 7.5938-7.9921 10.083-15.493 16.028-22.719 18.781-7.2256 2.7532-14.176 2.3145-19.094 0.6246-6.0002-2.0614-6.7526 4.1743-3.4375 9.8438 1.9984 3.4175 10.28 4.5133 19.219 1.3438 8.9391-3.1691 18.536-10.603 25.125-19.312 5.7329-5.0189 5.0199 1.7237 2.4062 6.4688-13.194 20.859-25.262 28.596-41.156 27.281-7.0475-1.1967-8.6481 4.2836-4.1562 9.3438 7.8874 6.5411 17.749 6.336 26.375-0.1251 7.6682-7.3932 22.338-23.313 30.031-31.844 5.4213-4.3219 7.1532-0.0612 5.5625 8.7188-1.4467 5.028-5.0683 10.323-14.938 14.188-6.7423 3.848-1.679 9.1514 3.375 9.25 2.7814 0.0542 8.4292-3.1972 12.75-8.0625 5.6842-6.4005 6.0223-10.698 9.1562-20.656 2.9609-4.8544 8.2495-2.5886 8.25 2.5-2.5365 9.9752-4.7158 11.764-9.8438 15.844-4.9048 4.6049 3.4152 6.1396 6.2187 4.25 8.1104-5.4668 11.071-12.538 13.781-18.969 1.9561-4.6417 7.6304-2.3915 5 5.1875-6.286 18.113-16.615 25.245-34.688 28.906-1.8316 0.3258-2.9488 1.4066-2.3125 3.5312 2.4256 2.5181 4.8556 4.803 7.2813 7.3125-11.175 3.2538-20.254 5.0817-31.438 8.3442-5.4868-3.5972-9.9194-6.6491-15.406-10.25-1.4468-3.3823-2.1215-8.545-10.219-4.9063-5.4868-2.5341-8.0178-1.6049-11.062 0.93753 4.3954 0.1638 6.3078 1.3409 8.0312 3.3438 2.2501 5.9261 7.4388 6.4986 12.75 4.8125 3.4553 2.9108 5.2954 5.1435 8.75 8.0625-6.4492-0.2205-10.942-0.3348-17.375-0.531-6.1407-6.5934-11.042-6.2322-15.438-1.0624-3.3501 0.5148-4.7702 0.5868-7.0625 4.6562 3.6051-1.4796 5.8732-1.9231 7.4375-0.3123 6.5287 3.785 10.794 2.9401 14.031 0 6.2987 0.3852 11.975 0.711 18.281 1.125-2.3166 1.9691-5.4958 3.0136-7.8125 5-9.4603-2.7065-14.398 0.93663-16.062 8.6563-1.2678 3.1157-1.8615 6.3235-1.3125 9.6563 0.91566-3.0484 2.3879-5.6694 5.0937-7.3125 8.432 2.1418 11.603-1.3005 12.062-6.3437 4.0645-3.3163 10.194-4.0477 14.25-7.4063 4.743 1.5184 7.0358 2.4589 11.812 3.9687 1.6983 5.1608 5.5413 7.2042 11.781 5.875 7.428 0.2331 6.1167 3.281 6.7188 5.7188 1.9741-3.5011 1.9191-6.9059-2.6563-10-1.6646-4.5224-5.3528-6.5792-10.188-3.9687-4.5509-1.292-5.7474-3.1491-10.281-4.4375 11.468-3.6553 19.603-4.4778 31.062-8.125 2.8685 2.7058 5.1419 4.6484 8.0312 7.0625 1.5228 0.90891 2.9805 1.1379 3.875 0 7.1808-10.393 10.388-19.553 17.062-26.406 2.55-2.8355 5.7716-6.6614 9.3438-7.5938 1.786-0.4662 3.9764-0.1818 5.375 1.3438 1.3986 1.5254 2.4972 4.3368 2.0313 8.5313-0.6687 6.0208-2.1234 7.9218-3.8125 11.531-1.6891 3.6095-3.7534 5.8298-5.875 8.5937-4.2434 5.5279-9.8424 8.7454-13.156 10.906-6.6277 4.3218-9.4307 2.4303-14.562 2.1562-6.6327 0.7443-8.3975 3.9747-2.9687 8.4375 5.0749 2.6405 9.6365 2.9665 13.344 2.2812 3.1831-0.5886 6.9083-4.6971 9.5625-6.9062 2.9876-3.4515 7.941 0.6417 4.5625 4.6562-6.1394 7.2948-12.274 12.104-19.844 12-7.9546 1.0706-6.4667 5.54-1.1875 7.7188 9.5012 3.9212 18.08-3.4235 22.438-8.25 3.3622-3.6784 5.7503-3.8218 5.1563 1.875-3.3378 10.314-7.8991 14.298-15.344 14.812-6.0386-0.5607-6.1038 4.1006-1.6875 7.25 10.06 6.9632 17.346-4.8947 20.75-12.062 2.4257-6.4657 6.1462-3.3909 6.5313 1.9375 0.0502 7.1194-3.1667 12.932-11.781 20.219 6.5912 10.502 14.275 21.183 20.875 31.719l20.005-222.81-20-35.202c-2.083-1.9231-9.1278-10.223-10.969-11.375-0.6714-0.7173-1.0797-1.2241-0.0936-1.5937 0.95364-0.3573 3.1859-0.7578 4.6875-1.0312-4.2417-4.2489-7.8766-5.6116-15.906-7.9373 1.9569-0.8334 3.8604-0.3483 9.625-0.6246-2.2886-3.2487-7.4003-8.2248-14-10.625 4.3585-3.0985 5.2078-3.3062 9.5313-6.9375-7.4866-0.531-13.88-1.9571-20.312-3.9062-4.0669-1.9016-9.7154-3.5162-12.469-3.5625zm0.7191 8.7188c3.9562 0 6.4063 1.3561 6.4063 3 0 1.6724-2.4501 3.0313-6.4063 3.0313-3.9398 0-6.4375-1.4829-6.4375-3.1562 7.1e-4 -1.6438 2.4978-2.875 6.4375-2.875z" fill="#000"/>
 <use transform="matrix(-1,0,0,1,700,0)" xlink:href="#half"/>
</svg>
